<svg xmlns="http://www.w3.org/2000/svg" viewBox="0 0 282 40">
  <g fill="#FFF" fill-rule="evenodd">
    <path id="logo-text" d="M40.493 39.17V4.222H33.39V.278h18.502v3.945h-7.104V39.17h-4.295zM68.575 17.5v3.89h-9.417v13.834h11.564v3.945H54.864V.27h15.858v3.95H59.158V17.5zm15.69 4.89l-6.44 16.78H73.75l7.762-20.058L74.242.278h4.46l5.95 15.556 6-15.556h4.02L87.46 19.112l7.71 20.057h-4.516zm19.988 16.78V4.222H97.15V.278h18.502v3.945h-7.103V39.17h-4.3zM128.37.278v38.89h-1.212V.28zm5.56 38.892h-1.156V.277h1.707l13.55 36.39V.277h1.16V39.17h-1.49L133.93 2.055zM178.2 9.834v3h-1.21V9.778c0-4.722-1.763-8.667-6.83-8.667-5.12 0-6.882 3.95-6.882 8.67v19.89c0 4.73 1.762 8.61 6.883 8.61 5.07 0 6.83-3.88 6.83-8.61v-4.28h1.21v4.23c0 5.39-2.2 9.84-8.09 9.84-5.84 0-8.04-4.444-8.04-9.834V9.836c0-5.39 2.2-9.836 8.04-9.836 5.89 0 8.09 4.44 8.09 9.83zm5.505 10.445v18.89h-1.21V.27h1.21v18.89h13.932V.272h1.21v38.89h-1.21V20.28zm20.704 9.33c0 4.66 1.65 8.72 6.77 8.72 5.12 0 6.77-4.06 6.77-8.73V.28h1.15v29.28c0 5.333-2.095 9.89-7.93 9.89-5.89 0-7.986-4.557-7.986-9.89V.278h1.212v29.335zM231.11.28c5.726 0 7.93 3.39 7.93 8.723v3.5c0 4.78-1.873 7.39-6.114 8.17 4.295.666 6.112 3.5 6.112 7.78v6.11c0 1.5.165 3.39 1.046 4.61h-1.322c-.77-1.22-.937-2.944-.937-4.61v-6.11c0-5.724-3.413-7.224-8.425-7.224h-4.735v17.94h-1.21V.27h7.654zm-1.708 19.78c5.342 0 8.425-1.39 8.425-7.39V9.11c0-4.723-1.817-7.668-6.773-7.668h-6.387v18.613h4.737zM260.46 9.834v3h-1.21V9.778c0-4.722-1.763-8.667-6.828-8.667-5.12 0-6.883 3.95-6.883 8.67v19.89c0 4.73 1.76 8.61 6.88 8.61 5.06 0 6.82-3.88 6.82-8.61v-4.28h1.21v4.23c0 5.39-2.2 9.84-8.098 9.84-5.837 0-8.04-4.444-8.04-9.834V9.836c0-5.39 2.203-9.836 8.04-9.836 5.892 0 8.095 4.442 8.095 9.832zm5.506 10.445v18.89h-1.21V.27h1.21v18.89H279.9V.272h1.21v38.89h-1.21V20.28z"/>
    <path d="M.034 16.763h10.63v22.364H.034zm14.495 0h10.63v22.364H14.53zM.03 12.666h10.63V.726S6.507.552 3.05 4.376c-3.59 3.97-3.016 8.29-3.016 8.29zm25.09 0H14.497V.726s4.156-.175 7.613 3.65c3.59 3.97 3.015 8.29 3.015 8.29z"/>
  </g>
</svg>
